<?xml version="1.0" standalone="no"?>
<!DOCTYPE svg PUBLIC "-//W3C//DTD SVG 20010904//EN"
 "http://www.w3.org/TR/2001/REC-SVG-20010904/DTD/svg10.dtd">
<svg version="1.0" xmlns="http://www.w3.org/2000/svg"
 width="512.000000pt" height="512.000000pt" viewBox="0 0 512.000000 512.000000"
 preserveAspectRatio="xMidYMid meet">
<metadata>
Created by potrace 1.11, written by Peter Selinger 2001-2013
</metadata>
<g transform="translate(0.000000,512.000000) scale(0.100000,-0.100000)"
fill="#000000" stroke="none">
<path d="M2369 5116 c-2 -2 -34 -6 -70 -10 -763 -71 -1490 -522 -1903 -1180
-214 -342 -339 -702 -384 -1106 -9 -85 -8 -458 1 -535 35 -277 95 -503 200
-745 44 -101 82 -177 126 -250 11 -19 29 -51 40 -70 30 -55 147 -217 221 -305
166 -199 391 -394 609 -529 82 -51 321 -176 336 -176 3 0 24 -9 48 -20 78 -37
311 -108 437 -133 214 -44 291 -51 525 -52 164 0 239 4 365 20 299 37 673 170
955 340 610 367 1041 970 1189 1665 14 63 28 140 31 170 4 30 9 69 12 85 8 59
11 451 3 520 -16 136 -22 175 -35 235 -3 14 -10 46 -15 71 -26 130 -96 342
-165 498 -37 83 -49 107 -127 245 -129 229 -388 531 -588 686 -24 19 -53 43
-65 53 -21 19 -215 149 -275 184 -81 48 -282 143 -371 177 -172 64 -403 123
-554 141 -27 4 -61 9 -75 12 -28 5 -466 14 -471 9z m481 -315 c429 -63 791
-218 1120 -479 98 -78 259 -234 320 -311 19 -24 40 -49 45 -55 14 -15 103
-140 136 -191 76 -118 195 -369 235 -498 49 -160 87 -333 101 -469 15 -144 8
-457 -12 -573 -6 -34 -24 -128 -31 -165 -15 -74 -81 -280 -113 -355 -107 -243
-240 -461 -376 -614 -60 -69 -201 -209 -260 -258 -83 -70 -228 -173 -300 -213
-33 -18 -68 -40 -79 -49 -10 -9 -20 -15 -22 -14 -2 1 -41 -15 -86 -37 -212
-99 -435 -166 -678 -201 -94 -14 -419 -18 -520 -7 -500 57 -926 250 -1302 590
-66 60 -177 181 -272 298 -90 112 -233 368 -300 540 -39 101 -103 316 -111
375 -2 11 -11 65 -20 120 -26 149 -26 511 0 655 3 14 7 40 10 58 35 214 115
449 224 657 58 111 129 227 144 233 4 2 7 8 7 14 0 11 97 133 185 233 51 58
121 123 260 244 67 57 277 191 390 247 149 75 278 124 429 164 122 33 125 33
196 45 25 4 54 9 65 11 11 2 54 7 95 10 41 4 77 8 79 10 8 7 372 -5 441 -15z"/>
<path d="M1324 3156 c-79 -22 -118 -70 -117 -148 1 -40 7 -57 30 -86 37 -45
72 -58 188 -65 50 -4 99 -9 110 -11 242 -52 396 -133 564 -296 61 -60 161
-188 161 -207 0 -4 6 -14 14 -22 20 -24 82 -178 100 -246 22 -86 25 -110 32
-205 7 -107 18 -141 53 -173 70 -62 168 -51 225 26 18 24 21 44 22 122 1 83
-4 127 -30 271 -12 67 -71 223 -118 314 -179 345 -493 595 -867 690 -101 25
-121 29 -221 36 -47 3 -89 7 -95 8 -5 2 -28 -2 -51 -8z"/>
<path d="M3738 3165 c-2 -1 -41 -5 -87 -9 -304 -24 -590 -153 -817 -368 l-86
-83 27 -50 c15 -28 32 -55 37 -62 5 -6 26 -50 47 -97 l38 -86 39 47 c93 114
203 207 335 280 122 69 325 122 462 123 125 0 185 62 179 183 -3 45 -67 105
-124 116 -26 4 -49 7 -50 6z"/>
</g>
</svg>
